<svg width="120" height="120" viewBox="0 0 120 120" fill="none" xmlns="http://www.w3.org/2000/svg">
<path d="M60 0C93.138 0 120 26.862 120 60C120 93.138 93.138 120 60 120C26.862 120 0 93.138 0 60C0 26.862 26.862 0 60 0ZM60 78C46.278 78 33.9 83.766 25.152 93C29.6322 97.7425 35.0344 101.519 41.0269 104.099C47.0194 106.678 53.4759 108.006 60 108C66.5231 108.005 72.9784 106.677 78.9698 104.098C84.9613 101.518 90.3625 97.7418 94.842 93C90.3625 88.2582 84.9613 84.4817 78.9698 81.9023C72.9784 79.3229 66.5231 77.995 60 78ZM62.82 19.92C62.595 19.3559 62.2061 18.8723 61.7033 18.5315C61.2006 18.1908 60.6073 18.0087 60 18.0087C59.3927 18.0087 58.7994 18.1908 58.2967 18.5315C57.7939 18.8723 57.405 19.3559 57.18 19.92L55.656 23.58C53.1091 29.7905 48.2773 34.7876 42.156 37.542L37.848 39.462C37.2972 39.7169 36.8308 40.1241 36.504 40.6354C36.1771 41.1468 36.0034 41.7411 36.0034 42.348C36.0034 42.9549 36.1771 43.5492 36.504 44.0606C36.8308 44.5719 37.2972 44.9791 37.848 45.234L42.408 47.262C48.3769 49.9424 53.128 54.7576 55.728 60.762L57.198 64.158C58.278 66.642 61.716 66.642 62.802 64.158L64.284 60.768C66.8764 54.7592 71.6269 49.9402 77.598 47.262L82.158 45.234C82.7105 44.9799 83.1785 44.5726 83.5066 44.0606C83.8347 43.5485 84.0091 42.9531 84.0091 42.345C84.0091 41.7369 83.8347 41.1415 83.5066 40.6294C83.1785 40.1174 82.7105 39.7101 82.158 39.456L77.85 37.536C71.7287 34.7857 66.8949 29.793 64.344 23.586L62.82 19.92Z" fill="#4880EE"/>
</svg>
